<svg width="252" height="149" viewBox="0 0 252 149" fill="none" xmlns="http://www.w3.org/2000/svg">
<path fill-rule="evenodd" clip-rule="evenodd" d="M7.59705 80.0729L1.25028 109.944L1.29482 109.959C1.09935 110.764 1 111.576 1 112.395C1 131.795 56.7485 147.522 125.518 147.522C194.287 147.522 250.035 131.795 250.035 112.395C250.035 111.666 249.957 110.943 249.802 110.225L244.679 81.1015L244.554 80.9565C244.419 81.6979 244.241 82.4083 244.023 83.0888C240.028 100.448 188.718 114.179 126.008 114.179C60.6912 114.179 7.74172 99.2822 7.74172 80.906C7.74172 80.7001 7.74837 80.4946 7.76162 80.2895C7.70086 80.216 7.64596 80.1438 7.59705 80.0729ZM8.0402 78L8.03679 78.0033L7.97026 78.3164C7.99337 78.2114 8.01668 78.1059 8.0402 78Z" fill="#5E6D84"/>
<path fill-rule="evenodd" clip-rule="evenodd" d="M0.0562353 110.3L7.19242 76.7129L7.27708 76.8356L9.03431 72L8.7488 72.7857L8.61902 74.0009L8.26467 75.2088L8.61902 74.5634L9.32354 72.7857L8.8625 75.1166V76.7129V77.3296C8.95304 78.5652 8.79457 78.2849 8.8625 78.6205V79.3029L9.03431 79.8556C9.0227 80.0354 9.10225 80.2916 9.10225 80.4722C9.10225 84.4586 11.9851 88.5266 17.8696 92.4408C23.7092 96.3251 32.2371 99.869 42.8809 102.864C64.1522 108.848 93.6061 112.565 126.188 112.565C157.468 112.565 185.868 109.139 206.912 103.569C217.439 100.782 226.074 97.4719 232.299 93.8181C238.572 90.1362 242.167 86.2419 243.053 82.3902L243.064 82.3423L243.079 82.2955C243.281 81.6646 243.447 81.0035 243.573 80.3106L243.864 78.6021V76.094L245.966 80.1416L251.141 109.565C251.31 110.355 251.396 111.155 251.396 111.961C251.396 117.417 247.487 122.346 241.085 126.616C234.639 130.915 225.39 134.741 214.066 137.936C191.401 144.329 160.159 148.268 125.698 148.268C91.2368 148.268 59.9944 144.329 37.3302 137.936C26.0062 134.741 16.7566 130.915 10.3106 126.616C3.90884 122.346 0 117.417 0 111.961C0 111.411 0.0402154 110.864 0.119495 110.32L0.0562353 110.3ZM1.47509 109.525C1.27961 110.33 1.18026 111.142 1.18026 111.961C1.18026 131.361 56.9287 147.088 125.698 147.088C194.467 147.088 250.216 131.361 250.216 111.961C250.216 111.233 250.137 110.509 249.982 109.791L244.86 80.6676L244.734 80.5226C244.724 80.5804 244.713 80.638 244.702 80.6954C244.693 80.7393 244.685 80.7831 244.676 80.8268C244.549 81.4589 244.391 82.068 244.204 82.6549C244.169 82.8046 244.131 82.954 244.09 83.1031C239.322 100.249 188.357 113.745 126.188 113.745C63.9235 113.745 12.8973 100.208 8.26467 83.0242C8.03759 82.1819 7.92198 81.3308 7.92198 80.4722C7.92198 80.2662 7.92863 80.0607 7.94188 79.8556C7.88112 79.7821 7.82623 79.7099 7.77731 79.639L1.43054 109.51L1.47509 109.525Z" fill="#341D1A"/>
<g filter="url(#filter0_d_2003_249)">
<path fill-rule="evenodd" clip-rule="evenodd" d="M8 78.1297C12.1083 58.4657 24.2425 19.0756 41.6423 10.4426C57.4676 2.59085 100.08 0.888483 124.754 1.00551C150.148 0.888485 194.007 2.59086 210.295 10.4426C228.204 19.0756 240.783 59.0558 245.012 78.7198C244.871 79.5693 244.676 80.3787 244.429 81.1498C240.434 98.5085 189.123 112.24 126.414 112.24C61.097 112.24 8.14753 97.3431 8.14753 78.967C8.14753 78.761 8.15418 78.5555 8.16743 78.3505C8.10548 78.2755 8.04963 78.2019 8 78.1297ZM226.2 72.1943L226.246 72.3871C226.219 72.4218 226.189 72.4568 226.158 72.4921C223.915 86.2291 179.088 97.192 124.119 97.192C69.1542 97.192 24.331 86.231 22.0806 72.4957C22.0489 72.4592 22.0193 72.423 21.992 72.3871L22.0377 72.1906C22.0073 71.9319 21.992 71.6723 21.992 71.4118C21.992 70.0166 22.4311 68.6473 23.2762 67.3122C27.7372 50.9345 29.894 25.5744 43.3341 19.5592C56.927 13.4756 101.454 10.9159 122.647 11.0065C125.768 10.9936 129.213 11.0094 132.867 11.064C154.755 11.3908 184.134 13.1052 196.123 18.3185C205.824 22.5371 217.088 30.3558 222.587 44.1971C224.357 50.6886 225.021 55.7785 225.758 61.5322C226.177 64.7999 226.246 69.9803 226.246 71.4118C226.246 71.6736 226.23 71.9344 226.2 72.1943Z" fill="#B8D2E4"/>
<path d="M124.753 0.505859C137.46 0.447342 154.789 0.843258 170.982 2.2373C179.079 2.93433 186.899 3.8816 193.72 5.14746C200.532 6.41191 206.38 8.00016 210.513 9.99219C215.098 12.2025 219.301 16.3962 223.087 21.6973C226.878 27.0044 230.277 33.4593 233.241 40.2441C239.17 53.8137 243.381 68.7581 245.5 78.6143L245.521 78.708L245.505 78.8018C245.361 79.6687 245.161 80.496 244.909 81.2861C243.854 85.8231 239.749 90.0204 233.375 93.7617C226.969 97.5217 218.174 100.88 207.567 103.688C186.35 109.304 157.8 112.74 126.413 112.74C93.7227 112.74 64.1086 109.012 42.6514 102.976C31.9262 99.9582 23.21 96.3565 17.1641 92.335C11.1372 88.3261 7.64746 83.8182 7.64746 78.9668C7.64746 78.8132 7.65314 78.6599 7.66016 78.5068C7.6364 78.4748 7.60999 78.4452 7.58789 78.4131L7.4668 78.2363L7.51074 78.0273C9.56987 68.1716 13.6389 53.3751 19.377 39.9531C22.246 33.242 25.5378 26.8603 29.2129 21.6084C32.8835 16.363 36.963 12.2065 41.4199 9.99512C45.4375 8.00178 51.1212 6.41306 57.7412 5.14844C64.3691 3.88231 71.9683 2.93439 79.8359 2.2373C95.57 0.843228 112.406 0.447378 124.753 0.505859ZM122.649 11.5068H122.645C112.064 11.4616 95.6505 12.0781 80.1855 13.4658C72.4533 14.1596 64.9648 15.0457 58.5654 16.1367C52.1543 17.2298 46.8751 18.5221 43.5381 20.0156C37.0408 22.9237 33.1925 30.5573 30.416 39.6953C29.0341 44.2435 27.9301 49.1192 26.8906 53.8936C25.8529 58.6601 24.8783 63.3331 23.7588 67.4434L23.7393 67.5166L23.6982 67.5801C22.8951 68.8491 22.4922 70.1271 22.4922 71.4121C22.4922 71.6528 22.5061 71.8927 22.5342 72.1318L22.5449 72.2188L22.5352 72.2568L22.5508 72.2744L22.5742 72.415C23.097 75.6051 26.1309 78.7645 31.4854 81.7109C36.8084 84.6401 44.2927 87.2854 53.4502 89.5088C71.7597 93.9542 96.6655 96.6924 124.119 96.6924C151.575 96.6924 176.483 93.9539 194.793 89.5078C203.951 87.2841 211.434 84.6385 216.757 81.709C222.111 78.762 225.143 75.6015 225.664 72.4111L225.688 72.2676L225.699 72.2529L225.692 72.2236L225.703 72.1357C225.732 71.8953 225.746 71.654 225.746 71.4121C225.746 69.9802 225.677 64.8282 225.263 61.5957C224.526 55.8513 223.866 50.7981 222.111 44.3564C216.676 30.6979 205.549 22.9633 195.923 18.7773C190.009 16.206 179.741 14.4778 168.159 13.3564C156.598 12.2371 143.796 11.7268 132.86 11.5635C129.209 11.509 125.767 11.4939 122.649 11.5068Z" stroke="#341D1A"/>
</g>
<defs>
<filter id="filter0_d_2003_249" x="2.93372" y="0" width="247.095" height="121.24" filterUnits="userSpaceOnUse" color-interpolation-filters="sRGB">
<feFlood flood-opacity="0" result="BackgroundImageFix"/>
<feColorMatrix in="SourceAlpha" type="matrix" values="0 0 0 0 0 0 0 0 0 0 0 0 0 0 0 0 0 0 127 0" result="hardAlpha"/>
<feOffset dy="4"/>
<feGaussianBlur stdDeviation="2"/>
<feComposite in2="hardAlpha" operator="out"/>
<feColorMatrix type="matrix" values="0 0 0 0 0 0 0 0 0 0 0 0 0 0 0 0 0 0 0.25 0"/>
<feBlend mode="normal" in2="BackgroundImageFix" result="effect1_dropShadow_2003_249"/>
<feBlend mode="normal" in="SourceGraphic" in2="effect1_dropShadow_2003_249" result="shape"/>
</filter>
</defs>
</svg>
